<?xml version="1.0" encoding="UTF-8" standalone="no"?>
<!-- Created for MapSVG plugin: http://mapsvg.com -->

<svg
   inkscape:export-ydpi="300"
   inkscape:export-xdpi="300"
   inkscape:export-filename="D:\Projects\#Mali-Data\Infographic Conflict Data\malimap005.png"
   inkscape:version="1.1.1 (3bf5ae0d25, 2021-09-20)"
   sodipodi:docname="city.svg"
   id="svg11"
   version="1.1"
   height="48"
   width="48"
   mapsvg:geoViewBox="-12.243005 25.000722 4.244202 10.160296"
   xmlns:inkscape="http://www.inkscape.org/namespaces/inkscape"
   xmlns:sodipodi="http://sodipodi.sourceforge.net/DTD/sodipodi-0.dtd"
   xmlns:xlink="http://www.w3.org/1999/xlink"
   xmlns="http://www.w3.org/2000/svg"
   xmlns:svg="http://www.w3.org/2000/svg"
   xmlns:mapsvg="http://mapsvg.com">
  <defs
     id="defs15">
    <rect
       x="1090.4053"
       y="-25.820164"
       width="210.53363"
       height="200.6028"
       id="rect96070" />
    <rect
       x="-5.6177268"
       y="1238.7087"
       width="1247.1354"
       height="147.46533"
       id="rect64718" />
    <rect
       x="-356.72565"
       y="-255.60657"
       width="775.86084"
       height="1925.9104"
       id="rect58802" />
    <rect
       x="370.76996"
       y="1016.8085"
       width="485.93338"
       height="369.36554"
       id="rect26089" />
    <rect
       x="29.792496"
       y="-57.598824"
       width="524.3479"
       height="220.46446"
       id="rect13007" />
    <pattern
       inkscape:collect="always"
       xlink:href="#Strips1_3-8"
       id="pattern2909-5"
       patternTransform="matrix(1.707641,1.3944238,-1.394424,1.7076409,212.02326,159.38985)" />
    <pattern
       inkscape:collect="always"
       patternUnits="userSpaceOnUse"
       width="4"
       height="1"
       patternTransform="translate(0,0) scale(10,10)"
       id="Strips1_3-8"
       inkscape:stockid="Stripes 1:3">
      <rect
         style="fill:black;stroke:none"
         x="0"
         y="-0.5"
         width="1"
         height="2"
         id="rect1868-0" />
    </pattern>
    <pattern
       inkscape:collect="always"
       patternUnits="userSpaceOnUse"
       width="4"
       height="1"
       patternTransform="translate(0,0) scale(10,10)"
       id="Strips1_3"
       inkscape:stockid="Stripes 1:3">
      <rect
         style="fill:black;stroke:none"
         x="0"
         y="-0.5"
         width="1"
         height="2"
         id="rect1868" />
    </pattern>
    <pattern
       inkscape:collect="always"
       xlink:href="#Strips1_3"
       id="pattern864"
       patternTransform="matrix(1.707641,1.3944238,-1.394424,1.7076409,212.02326,159.38985)" />
    <rect
       x="370.76996"
       y="1016.8085"
       width="485.93338"
       height="369.36554"
       id="rect30135" />
    <rect
       x="370.76996"
       y="1016.8085"
       width="485.93338"
       height="369.36554"
       id="rect32375" />
    <rect
       x="370.76996"
       y="1016.8085"
       width="485.93338"
       height="369.36554"
       id="rect32483" />
    <rect
       x="370.76996"
       y="1016.8085"
       width="485.93338"
       height="369.36554"
       id="rect32591" />
    <rect
       x="370.76996"
       y="1016.8085"
       width="485.93338"
       height="369.36554"
       id="rect33713" />
    <rect
       x="370.76996"
       y="1016.8085"
       width="485.93338"
       height="369.36554"
       id="rect33821" />
    <rect
       x="370.76996"
       y="1016.8085"
       width="485.93338"
       height="369.36554"
       id="rect34046" />
    <rect
       x="370.76996"
       y="1016.8085"
       width="485.93338"
       height="369.36554"
       id="rect34154" />
    <rect
       x="370.76996"
       y="1016.8085"
       width="485.93338"
       height="369.36554"
       id="rect34262" />
    <rect
       x="370.76996"
       y="1016.8085"
       width="485.93338"
       height="369.36554"
       id="rect34538" />
    <rect
       x="370.76996"
       y="1016.8085"
       width="485.93338"
       height="369.36554"
       id="rect34646" />
    <rect
       x="-5.6177268"
       y="1238.7087"
       width="1247.1354"
       height="147.46533"
       id="rect70122" />
    <rect
       x="29.792496"
       y="-57.598824"
       width="770.12347"
       height="75.807999"
       id="rect13007-9" />
    <rect
       x="1090.4053"
       y="-25.820164"
       width="210.53363"
       height="200.6028"
       id="rect96070-0" />
    <rect
       x="1090.4053"
       y="-25.820164"
       width="210.53363"
       height="200.6028"
       id="rect96070-3" />
    <rect
       x="1090.4053"
       y="-25.820164"
       width="210.53363"
       height="200.6028"
       id="rect96070-5" />
    <rect
       x="1090.4053"
       y="-25.820164"
       width="210.53363"
       height="200.6028"
       id="rect96070-4" />
    <rect
       x="1090.4053"
       y="-25.820164"
       width="210.53363"
       height="200.6028"
       id="rect96070-6" />
    <rect
       x="1090.4053"
       y="-25.820164"
       width="210.53363"
       height="200.6028"
       id="rect96070-45" />
    <rect
       x="1090.4053"
       y="-25.820164"
       width="210.53363"
       height="200.6028"
       id="rect96070-1" />
    <rect
       x="1090.4053"
       y="-25.820164"
       width="210.53363"
       height="200.6028"
       id="rect96070-9" />
    <rect
       x="1090.4053"
       y="-25.820164"
       width="210.53363"
       height="200.6028"
       id="rect96070-65" />
    <rect
       x="1090.4053"
       y="-25.820164"
       width="210.53363"
       height="200.6028"
       id="rect96070-1-7" />
    <rect
       x="1090.4053"
       y="-25.820164"
       width="210.53363"
       height="200.6028"
       id="rect96070-1-3" />
    <rect
       x="1090.4053"
       y="-25.820164"
       width="210.53363"
       height="200.6028"
       id="rect96070-4-9" />
    <rect
       x="370.76996"
       y="1016.8085"
       width="485.93338"
       height="369.36554"
       id="rect33713-0" />
    <rect
       x="1090.4053"
       y="-25.820164"
       width="210.53363"
       height="200.6028"
       id="rect96070-6-6" />
    <rect
       x="370.76996"
       y="1016.8085"
       width="485.93338"
       height="369.36554"
       id="rect34646-9" />
    <rect
       x="1090.4053"
       y="-25.820164"
       width="210.53363"
       height="200.6028"
       id="rect96070-45-8" />
    <rect
       x="1090.4053"
       y="-25.820164"
       width="210.53363"
       height="200.6028"
       id="rect96070-0-6" />
    <rect
       x="370.76996"
       y="1016.8085"
       width="485.93338"
       height="369.36554"
       id="rect32483-2" />
    <rect
       x="1090.4053"
       y="-25.820164"
       width="210.53363"
       height="200.6028"
       id="rect96070-06" />
    <rect
       x="370.76996"
       y="1016.8085"
       width="485.93338"
       height="369.36554"
       id="rect34154-7" />
    <rect
       x="370.76996"
       y="1016.8085"
       width="485.93338"
       height="369.36554"
       id="rect30135-5" />
    <rect
       x="1090.4053"
       y="-25.820164"
       width="210.53363"
       height="200.6028"
       id="rect96070-3-3" />
    <rect
       x="370.76996"
       y="1016.8085"
       width="485.93338"
       height="369.36554"
       id="rect33821-9" />
    <rect
       x="1090.4053"
       y="-25.820164"
       width="210.53363"
       height="200.6028"
       id="rect96070-5-7" />
    <rect
       x="370.76996"
       y="1016.8085"
       width="485.93338"
       height="369.36554"
       id="rect32591-7" />
    <rect
       x="1090.4053"
       y="-25.820164"
       width="210.53363"
       height="200.6028"
       id="rect96070-1-7-1" />
    <rect
       x="1090.4053"
       y="-25.820164"
       width="210.53363"
       height="200.6028"
       id="rect96070-1-3-8" />
    <rect
       x="370.76996"
       y="1016.8085"
       width="485.93338"
       height="369.36554"
       id="rect32375-4" />
    <rect
       x="1090.4053"
       y="-25.820164"
       width="210.53363"
       height="200.6028"
       id="rect96070-1-77" />
    <rect
       x="370.76996"
       y="1016.8085"
       width="485.93338"
       height="369.36554"
       id="rect34262-3" />
    <rect
       x="852.49005"
       y="47.750679"
       width="373.57883"
       height="398.85861"
       id="rect19242" />
    <rect
       x="852.49005"
       y="47.750679"
       width="373.57883"
       height="398.85861"
       id="rect21092" />
    <rect
       x="852.49005"
       y="47.750679"
       width="373.57883"
       height="398.85861"
       id="rect21098" />
    <rect
       x="852.49005"
       y="47.750679"
       width="373.57883"
       height="398.85861"
       id="rect21104" />
    <rect
       x="852.49005"
       y="47.750679"
       width="373.57883"
       height="398.85861"
       id="rect21110" />
    <rect
       x="852.49005"
       y="47.750679"
       width="373.57883"
       height="398.85861"
       id="rect21116" />
    <rect
       x="852.49005"
       y="47.750679"
       width="373.57883"
       height="398.85861"
       id="rect29952" />
    <rect
       x="852.49005"
       y="47.750679"
       width="373.57883"
       height="398.85861"
       id="rect32568" />
  </defs>
  <sodipodi:namedview
     id="namedview13"
     pagecolor="#ffffff"
     bordercolor="#cccccc"
     borderopacity="1"
     inkscape:pageshadow="0"
     inkscape:pageopacity="1"
     inkscape:pagecheckerboard="0"
     showgrid="false"
     inkscape:zoom="1.4142136"
     inkscape:cx="-6.363961"
     inkscape:cy="2.4748737"
     inkscape:window-width="1858"
     inkscape:window-height="1057"
     inkscape:window-x="-8"
     inkscape:window-y="1072"
     inkscape:window-maximized="1"
     inkscape:current-layer="layer7"
     inkscape:snap-global="true"
     fit-margin-top="0"
     fit-margin-left="0"
     fit-margin-right="0"
     fit-margin-bottom="0"
     units="px"
     showguides="true"
     inkscape:guide-bbox="true" />
  <g
     inkscape:groupmode="layer"
     id="layer7"
     inkscape:label="icons"
     style="display:inline"
     transform="translate(-21.0665, -181.172)">
    <path
       id="path9922"
       style="color:#000000;display:inline;fill:#434343;fill-opacity:1;stroke:none;stroke-width:0.999999;-inkscape-stroke:none;paint-order:fill markers stroke"
       d="m 54.673945,189.46329 -0.774747,1.59447 -0.774763,1.59448 a 0.57382559,1.7727098 25.909107 0 0 0.833544,-0.58105 0.57382559,1.7727098 25.909107 0 0 0.774762,-1.5945 0.57382559,1.7727098 25.909107 0 0 -0.05872,-1.0134 z m -0.217906,2.08908 v 1.77087 H 50.67392 v 0.44272 11.43802 H 34.397142 c -0.02822,-0.20503 -0.06442,-0.41514 -0.110599,-0.62949 h 3.546921 5.112012 0.397744 v -0.39775 c 0,-1.96086 -1.052649,-3.77425 -2.75661,-4.75403 -0.851974,-0.48989 -1.802125,-0.73499 -2.753146,-0.73499 -0.951021,0 -1.902896,0.2451 -2.754869,0.73499 -0.861966,0.49563 -1.555769,1.20549 -2.032019,2.03893 -0.728169,-1.17608 -1.681854,-2.04239 -2.72548,-2.04239 -2.286515,0 -4.140095,4.156 -4.140095,6.62521 0,0.84909 0.221812,1.38729 0.603549,1.72936 -0.370491,0.75812 -0.603549,1.62401 -0.603549,2.29142 0,1.38904 0.972586,1.40016 2.217044,1.39559 v 0.84393 h -1.656748 -2.706451 v 4.75229 h -0.06229 v 3.82365 h 42.187885 v -3.82365 h -1.705157 v -23.73381 h -9.186398 v -1.77087 z m -2.896678,2.6563 h 11.655927 v 0.99958 h -2.203219 v 3.02465 h 2.203219 v 1.35583 h -2.203219 v 3.02466 h 2.203219 v 1.35409 h -2.203219 v 3.02466 h 2.203219 v 1.35582 h -2.203219 v 3.02466 h 2.203219 v 4.87509 h -4.214469 v -2.98142 h -1.7311 v 2.98142 h -0.121015 v -2.98142 h -1.729362 v 2.98142 H 51.5594 Z m -6.056234,0.20926 v 10.35372 h 0.594899 v -10.35372 z m 6.713404,0.79032 v 3.02465 h 3.036761 v -3.02465 z m 4.397756,0 v 3.02465 h 3.036774 v -3.02465 z m -18.780916,4.27326 c 0.814458,0 1.628888,0.20976 2.358866,0.62949 1.336691,0.76861 2.113335,2.15735 2.249913,3.66971 h -4.608764 -3.752729 c -0.142942,-0.46892 -0.323139,-0.93965 -0.534376,-1.3904 0.365887,-0.94287 1.017128,-1.75541 1.928239,-2.27931 0.729977,-0.41973 1.544408,-0.62949 2.358851,-0.62949 z m 14.383147,0.10712 v 3.02466 h 3.036761 v -3.02466 z m 4.397769,0 v 3.02466 h 3.036774 v -3.02466 z m -8.643369,1.02379 v 4.15913 h 0.596636 v -4.15913 z m 4.2456,3.35497 v 3.02466 h 3.036761 v -3.02466 z m 4.397769,0 v 3.02466 h 3.036774 v -3.02466 z m -22.154899,2.12194 h 16.029493 v 10.15829 H 32.574379 v -7.96027 c 1.123188,-0.16135 1.870455,-0.66342 1.885009,-2.19802 z m 3.85129,1.02897 v 2.11847 h 2.127119 v -2.11847 z m 3.081745,0 v 2.11847 h 2.127105 v -2.11847 z m 3.081716,0 v 2.11847 h 2.127119 v -2.11847 z m 3.081733,0 v 2.11847 h 2.127117 v -2.11847 z m 4.660646,1.22957 v 3.02466 h 3.036761 v -3.02466 z m 4.397769,0 v 3.02466 h 3.036774 v -3.02466 z m -24.925349,0.007 v 8.70218 h -0.103767 v -4.30952 -0.44271 h -0.828355 v -1.18116 c 0.240556,-0.20482 0.380453,-0.53272 0.380453,-1.05837 0,-0.49869 -0.133417,-1.1109 -0.351063,-1.70515 0.307661,7.8e-4 0.619798,0.002 0.90273,-0.006 z m 6.62174,1.8314 v 2.1202 h 2.127119 v -2.1202 z m 3.081745,0 v 2.1202 h 2.127105 v -2.1202 z m 3.081716,0 v 2.1202 h 2.127119 v -2.1202 z m 3.081733,0 v 2.1202 h 2.127117 v -2.12024 z m -17.672394,1.24166 v 0.87677 h -0.96325 v -0.84393 c 0.348911,0.001 0.672535,-0.002 0.96325,-0.0329 z m -4.963277,1.76222 h 3.477751 v 3.05752 h -3.477751 z m 4.000027,0 h 0.96325 v 3.05752 h -0.96325 z m 9.39045,0.0657 v 2.1202 h 2.127119 v -2.1202 z m 3.081745,0 v 2.1202 h 2.127105 v -2.1202 z m 3.081716,0 v 2.1202 h 2.127119 v -2.1202 z m 3.081733,0 v 2.1202 h 2.127117 v -2.1202 z" />
  </g>
</svg>
