<?xml version="1.0" encoding="UTF-8" standalone="no"?>
<!-- Created for MapSVG plugin: http://mapsvg.com -->

<svg
   inkscape:export-ydpi="300"
   inkscape:export-xdpi="300"
   inkscape:export-filename="D:\Projects\#Mali-Data\Infographic Conflict Data\malimap005.png"
   inkscape:version="1.1.1 (3bf5ae0d25, 2021-09-20)"
   sodipodi:docname="phosphates.svg"
   id="svg11"
   version="1.1"
   height="48"
   width="48"
   mapsvg:geoViewBox="-12.243005 25.000722 4.244202 10.160296"
   xmlns:inkscape="http://www.inkscape.org/namespaces/inkscape"
   xmlns:sodipodi="http://sodipodi.sourceforge.net/DTD/sodipodi-0.dtd"
   xmlns:xlink="http://www.w3.org/1999/xlink"
   xmlns="http://www.w3.org/2000/svg"
   xmlns:svg="http://www.w3.org/2000/svg"
   xmlns:mapsvg="http://mapsvg.com">
  <defs
     id="defs15">
    <rect
       x="1090.4053"
       y="-25.820164"
       width="210.53363"
       height="200.6028"
       id="rect96070" />
    <rect
       x="-5.6177268"
       y="1238.7087"
       width="1247.1354"
       height="147.46533"
       id="rect64718" />
    <rect
       x="-356.72565"
       y="-255.60657"
       width="775.86084"
       height="1925.9104"
       id="rect58802" />
    <rect
       x="370.76996"
       y="1016.8085"
       width="485.93338"
       height="369.36554"
       id="rect26089" />
    <rect
       x="29.792496"
       y="-57.598824"
       width="524.3479"
       height="220.46446"
       id="rect13007" />
    <pattern
       inkscape:collect="always"
       xlink:href="#Strips1_3-8"
       id="pattern2909-5"
       patternTransform="matrix(1.707641,1.3944238,-1.394424,1.7076409,212.02326,159.38985)" />
    <pattern
       inkscape:collect="always"
       patternUnits="userSpaceOnUse"
       width="4"
       height="1"
       patternTransform="translate(0,0) scale(10,10)"
       id="Strips1_3-8"
       inkscape:stockid="Stripes 1:3">
      <rect
         style="fill:black;stroke:none"
         x="0"
         y="-0.5"
         width="1"
         height="2"
         id="rect1868-0" />
    </pattern>
    <pattern
       inkscape:collect="always"
       patternUnits="userSpaceOnUse"
       width="4"
       height="1"
       patternTransform="translate(0,0) scale(10,10)"
       id="Strips1_3"
       inkscape:stockid="Stripes 1:3">
      <rect
         style="fill:black;stroke:none"
         x="0"
         y="-0.5"
         width="1"
         height="2"
         id="rect1868" />
    </pattern>
    <pattern
       inkscape:collect="always"
       xlink:href="#Strips1_3"
       id="pattern864"
       patternTransform="matrix(1.707641,1.3944238,-1.394424,1.7076409,212.02326,159.38985)" />
    <rect
       x="370.76996"
       y="1016.8085"
       width="485.93338"
       height="369.36554"
       id="rect30135" />
    <rect
       x="370.76996"
       y="1016.8085"
       width="485.93338"
       height="369.36554"
       id="rect32375" />
    <rect
       x="370.76996"
       y="1016.8085"
       width="485.93338"
       height="369.36554"
       id="rect32483" />
    <rect
       x="370.76996"
       y="1016.8085"
       width="485.93338"
       height="369.36554"
       id="rect32591" />
    <rect
       x="370.76996"
       y="1016.8085"
       width="485.93338"
       height="369.36554"
       id="rect33713" />
    <rect
       x="370.76996"
       y="1016.8085"
       width="485.93338"
       height="369.36554"
       id="rect33821" />
    <rect
       x="370.76996"
       y="1016.8085"
       width="485.93338"
       height="369.36554"
       id="rect34046" />
    <rect
       x="370.76996"
       y="1016.8085"
       width="485.93338"
       height="369.36554"
       id="rect34154" />
    <rect
       x="370.76996"
       y="1016.8085"
       width="485.93338"
       height="369.36554"
       id="rect34262" />
    <rect
       x="370.76996"
       y="1016.8085"
       width="485.93338"
       height="369.36554"
       id="rect34538" />
    <rect
       x="370.76996"
       y="1016.8085"
       width="485.93338"
       height="369.36554"
       id="rect34646" />
    <rect
       x="-5.6177268"
       y="1238.7087"
       width="1247.1354"
       height="147.46533"
       id="rect70122" />
    <rect
       x="29.792496"
       y="-57.598824"
       width="770.12347"
       height="75.807999"
       id="rect13007-9" />
    <rect
       x="1090.4053"
       y="-25.820164"
       width="210.53363"
       height="200.6028"
       id="rect96070-0" />
    <rect
       x="1090.4053"
       y="-25.820164"
       width="210.53363"
       height="200.6028"
       id="rect96070-3" />
    <rect
       x="1090.4053"
       y="-25.820164"
       width="210.53363"
       height="200.6028"
       id="rect96070-5" />
    <rect
       x="1090.4053"
       y="-25.820164"
       width="210.53363"
       height="200.6028"
       id="rect96070-4" />
    <rect
       x="1090.4053"
       y="-25.820164"
       width="210.53363"
       height="200.6028"
       id="rect96070-6" />
    <rect
       x="1090.4053"
       y="-25.820164"
       width="210.53363"
       height="200.6028"
       id="rect96070-45" />
    <rect
       x="1090.4053"
       y="-25.820164"
       width="210.53363"
       height="200.6028"
       id="rect96070-1" />
    <rect
       x="1090.4053"
       y="-25.820164"
       width="210.53363"
       height="200.6028"
       id="rect96070-9" />
    <rect
       x="1090.4053"
       y="-25.820164"
       width="210.53363"
       height="200.6028"
       id="rect96070-65" />
    <rect
       x="1090.4053"
       y="-25.820164"
       width="210.53363"
       height="200.6028"
       id="rect96070-1-7" />
    <rect
       x="1090.4053"
       y="-25.820164"
       width="210.53363"
       height="200.6028"
       id="rect96070-1-3" />
    <rect
       x="1090.4053"
       y="-25.820164"
       width="210.53363"
       height="200.6028"
       id="rect96070-4-9" />
    <rect
       x="370.76996"
       y="1016.8085"
       width="485.93338"
       height="369.36554"
       id="rect33713-0" />
    <rect
       x="1090.4053"
       y="-25.820164"
       width="210.53363"
       height="200.6028"
       id="rect96070-6-6" />
    <rect
       x="370.76996"
       y="1016.8085"
       width="485.93338"
       height="369.36554"
       id="rect34646-9" />
    <rect
       x="1090.4053"
       y="-25.820164"
       width="210.53363"
       height="200.6028"
       id="rect96070-45-8" />
    <rect
       x="1090.4053"
       y="-25.820164"
       width="210.53363"
       height="200.6028"
       id="rect96070-0-6" />
    <rect
       x="370.76996"
       y="1016.8085"
       width="485.93338"
       height="369.36554"
       id="rect32483-2" />
    <rect
       x="1090.4053"
       y="-25.820164"
       width="210.53363"
       height="200.6028"
       id="rect96070-06" />
    <rect
       x="370.76996"
       y="1016.8085"
       width="485.93338"
       height="369.36554"
       id="rect34154-7" />
    <rect
       x="370.76996"
       y="1016.8085"
       width="485.93338"
       height="369.36554"
       id="rect30135-5" />
    <rect
       x="1090.4053"
       y="-25.820164"
       width="210.53363"
       height="200.6028"
       id="rect96070-3-3" />
    <rect
       x="370.76996"
       y="1016.8085"
       width="485.93338"
       height="369.36554"
       id="rect33821-9" />
    <rect
       x="1090.4053"
       y="-25.820164"
       width="210.53363"
       height="200.6028"
       id="rect96070-5-7" />
    <rect
       x="370.76996"
       y="1016.8085"
       width="485.93338"
       height="369.36554"
       id="rect32591-7" />
    <rect
       x="1090.4053"
       y="-25.820164"
       width="210.53363"
       height="200.6028"
       id="rect96070-1-7-1" />
    <rect
       x="1090.4053"
       y="-25.820164"
       width="210.53363"
       height="200.6028"
       id="rect96070-1-3-8" />
    <rect
       x="370.76996"
       y="1016.8085"
       width="485.93338"
       height="369.36554"
       id="rect32375-4" />
    <rect
       x="1090.4053"
       y="-25.820164"
       width="210.53363"
       height="200.6028"
       id="rect96070-1-77" />
    <rect
       x="370.76996"
       y="1016.8085"
       width="485.93338"
       height="369.36554"
       id="rect34262-3" />
  </defs>
  <sodipodi:namedview
     id="namedview13"
     pagecolor="#ffffff"
     bordercolor="#cccccc"
     borderopacity="1"
     inkscape:pageshadow="0"
     inkscape:pageopacity="1"
     inkscape:pagecheckerboard="0"
     showgrid="false"
     inkscape:zoom="2"
     inkscape:cx="-84.5"
     inkscape:cy="9.75"
     inkscape:window-width="1858"
     inkscape:window-height="1057"
     inkscape:window-x="-8"
     inkscape:window-y="1072"
     inkscape:window-maximized="1"
     inkscape:current-layer="layer7"
     inkscape:snap-global="true"
     fit-margin-top="0"
     fit-margin-left="0"
     fit-margin-right="0"
     fit-margin-bottom="0"
     units="px"
     showguides="true"
     inkscape:guide-bbox="true" />
  <g
     inkscape:groupmode="layer"
     id="layer7"
     inkscape:label="icons"
     style="display:inline"
     transform="translate(-21.0665, -181.172)">
    <path
       id="path34133-5"
       style="display:inline;overflow:visible;vector-effect:none;fill:#434343;stroke-width:0.999998px;paint-order:fill markers stroke;stop-color:#000000"
       d="m 45.181494,190.75703 a 4.9024861,4.9024861 0 0 0 -1.383383,0.16609 4.9024861,4.9024861 0 0 0 -3.468418,6.00217 4.9024861,4.9024861 0 0 0 6.004631,3.46843 4.9024861,4.9024861 0 0 0 3.465943,-6.00464 4.9024861,4.9024861 0 0 0 -4.618773,-3.63205 z m 7.953311,9.51026 a 4.9024861,4.9024861 0 0 0 -4.903866,4.90387 4.9024861,4.9024861 0 0 0 4.903866,4.90141 4.9024861,4.9024861 0 0 0 4.901411,-4.90141 4.9024861,4.9024861 0 0 0 -4.901411,-4.90387 z m -14.907475,0.008 a 4.9024861,4.9024861 0 0 0 -2.684989,0.64952 4.9024861,4.9024861 0 0 0 -1.794957,6.69884 4.9024861,4.9024861 0 0 0 6.69635,1.79246 4.9024861,4.9024861 0 0 0 1.794939,-6.69635 4.9024861,4.9024861 0 0 0 -4.011343,-2.44447 z m 23.128526,9.50773 a 4.9024861,4.9024861 0 0 0 -4.90139,4.90142 4.9024861,4.9024861 0 0 0 4.90139,4.90386 4.9024861,4.9024861 0 0 0 4.903887,-4.90386 4.9024861,4.9024861 0 0 0 -4.903887,-4.90142 z m -32.346232,0.005 a 4.9024861,4.9024861 0 0 0 -2.684989,0.652 4.9024861,4.9024861 0 0 0 -1.794937,6.69636 4.9024861,4.9024861 0 0 0 6.69633,1.79494 4.9024861,4.9024861 0 0 0 1.794957,-6.6988 4.9024861,4.9024861 0 0 0 -4.011361,-2.4445 z m 16.288403,0 a 4.9024861,4.9024861 0 0 0 -2.682495,0.652 4.9024861,4.9024861 0 0 0 -1.794958,6.69636 4.9024861,4.9024861 0 0 0 6.696351,1.79494 4.9024861,4.9024861 0 0 0 1.794936,-6.6988 4.9024861,4.9024861 0 0 0 -4.013834,-2.4445 z" />
  </g>
</svg>
